<svg width="20" height="19" viewBox="0 0 20 19" fill="none" xmlns="http://www.w3.org/2000/svg">
<path d="M2.22222 12.35H4.44444V17.1H17.7778V1.9H4.44444V6.65H2.22222V0.95C2.22222 0.698044 2.33929 0.456408 2.54766 0.278249C2.75603 0.100089 3.03865 0 3.33333 0H18.8889C19.1836 0 19.4662 0.100089 19.6746 0.278249C19.8829 0.456408 20 0.698044 20 0.95V18.05C20 18.302 19.8829 18.5436 19.6746 18.7218C19.4662 18.8999 19.1836 19 18.8889 19H3.33333C3.03865 19 2.75603 18.8999 2.54766 18.7218C2.33929 18.5436 2.22222 18.302 2.22222 18.05V12.35ZM8.88889 8.55V5.7L14.4444 9.5L8.88889 13.3V10.45H0V8.55H8.88889Z" fill="#3B413C"/>
</svg>
