<svg width="20" height="19" viewBox="0 0 20 19" fill="none" xmlns="http://www.w3.org/2000/svg">
<path d="M17.7778 12.35H15.5556V17.1H2.22222V1.9H15.5556V6.65H17.7778V0.95C17.7778 0.698044 17.6607 0.456408 17.4523 0.278249C17.244 0.100089 16.9614 0 16.6667 0H1.11111C0.816425 0 0.53381 0.100089 0.325436 0.278249C0.117062 0.456408 0 0.698044 0 0.95V18.05C0 18.302 0.117062 18.5436 0.325436 18.7218C0.53381 18.8999 0.816425 19 1.11111 19H16.6667C16.9614 19 17.244 18.8999 17.4523 18.7218C17.6607 18.5436 17.7778 18.302 17.7778 18.05V12.35ZM11.1111 8.55V5.7L5.55556 9.5L11.1111 13.3V10.45H20V8.55H11.1111Z" fill="#3B413C"/>
</svg>
