<svg width="28" height="28" viewBox="0 0 28 28" fill="none" xmlns="http://www.w3.org/2000/svg">
<path d="M14 6.07665e-06C21.7322 6.07665e-06 28 6.26781 28 14C28 21.7322 21.7322 28 14 28C6.2678 28 0 21.7322 0 14H2.8C2.80021 16.6337 3.72856 19.1832 5.42196 21.2003C7.11536 23.2175 9.46546 24.5734 12.0594 25.0297C14.6533 25.4861 17.325 25.0137 19.6052 23.6956C21.8854 22.3775 23.6281 20.298 24.5272 17.8225C25.4263 15.347 25.4242 12.6338 24.5213 10.1597C23.6185 7.68554 21.8726 5.60871 19.5904 4.29411C17.3082 2.9795 14.6358 2.5112 12.0426 2.97151C9.44936 3.43181 7.10132 4.79126 5.411 6.811L8.4 9.8H0V1.40001L3.4258 4.82441C4.73884 3.30846 6.36284 2.09296 8.18744 1.2605C10.012 0.428039 11.9945 -0.00186426 14 6.07665e-06ZM15.4 7V13.419L19.9402 17.9592L17.9592 19.9402L12.6 14.5782V7H15.4Z" fill="#3B413C"/>
</svg>
