<svg width="55" height="55" viewBox="0 0 55 55" fill="none" xmlns="http://www.w3.org/2000/svg">
<path fill-rule="evenodd" clip-rule="evenodd" d="M27.5 0C12.3118 0 0 12.3118 0 27.5C0 42.6882 12.3118 55 27.5 55C42.6882 55 55 42.6882 55 27.5C55 12.3118 42.6882 0 27.5 0ZM17.875 20.625C17.875 19.361 18.124 18.1094 18.6077 16.9417C19.0914 15.7739 19.8003 14.7129 20.6941 13.8191C21.5879 12.9253 22.6489 12.2164 23.8167 11.7327C24.9844 11.249 26.236 11 27.5 11C28.764 11 30.0156 11.249 31.1833 11.7327C32.3511 12.2164 33.4121 12.9253 34.3059 13.8191C35.1997 14.7129 35.9086 15.7739 36.3923 16.9417C36.876 18.1094 37.125 19.361 37.125 20.625C37.125 23.1777 36.1109 25.6259 34.3059 27.4309C32.5009 29.2359 30.0527 30.25 27.5 30.25C24.9473 30.25 22.4991 29.2359 20.6941 27.4309C18.8891 25.6259 17.875 23.1777 17.875 20.625ZM44.7095 41.206C42.6503 43.7947 40.0331 45.8851 37.0533 47.3212C34.0735 48.7573 30.8078 49.5021 27.5 49.5C24.1922 49.5021 20.9265 48.7573 17.9467 47.3212C14.9669 45.8851 12.3497 43.7947 10.2905 41.206C14.7483 38.0077 20.8312 35.75 27.5 35.75C34.1688 35.75 40.2517 38.0077 44.7095 41.206Z" fill="#24AFCF"/>
</svg>
