<svg width="34" height="25" viewBox="0 0 34 25" fill="none" xmlns="http://www.w3.org/2000/svg">
<path d="M27.6667 9.21429L24.1111 12.5L27.6667 15.7857M18.7778 1V24M31.2222 24H2.77778C2.30628 24 1.8541 23.8269 1.5207 23.5188C1.1873 23.2107 1 22.7929 1 22.3571V2.64286C1 2.20714 1.1873 1.78928 1.5207 1.48118C1.8541 1.17309 2.30628 1 2.77778 1H31.2222C31.6937 1 32.1459 1.17309 32.4793 1.48118C32.8127 1.78928 33 2.20714 33 2.64286V22.3571C33 22.7929 32.8127 23.2107 32.4793 23.5188C32.1459 23.8269 31.6937 24 31.2222 24Z" stroke="#24AFCF" stroke-width="2" stroke-linecap="round" stroke-linejoin="round"/>
</svg>
